<svg width="24" height="24" viewBox="0 0 24 24" fill="none" xmlns="http://www.w3.org/2000/svg">
<path fill-rule="evenodd" clip-rule="evenodd" d="M23.6805 12.3707C22.4175 6.38916 15.7421 0.760882 11.1637 0.242371V0.242929C10.792 0.479022 10.4828 0.774278 10.2333 1.11921C12.9006 1.36646 15.2292 3.15028 17.9043 6.01465C19.9823 8.24163 21.3721 11.7981 21.7131 15.5454C21.8504 17.0284 21.8214 18.5404 21.611 20.0128C23.7553 17.6636 24.2331 14.9834 23.6805 12.3707Z" fill="#F29100"/>
<path fill-rule="evenodd" clip-rule="evenodd" d="M21.7134 15.5457C21.8507 17.0281 21.8217 18.5401 21.6107 20.0131C19.1738 22.7602 10.7638 24.1193 5.42519 23.7308V23.7286C4.61868 22.5811 4.20789 21.3141 4.10352 19.9868C10.8871 21.2549 18.1502 19.2043 21.7134 15.5457Z" fill="#EA5B25"/>
<path fill-rule="evenodd" clip-rule="evenodd" d="M16.622 6.94959C18.1876 9.44112 17.8734 13.9319 16.1303 16.5228L15.9076 16.4687C14.7394 15.9719 13.5534 14.8216 12.5186 13.3447C16.0131 9.10568 14.0775 5.88577 11.6317 5.22605C10.9016 5.02679 10.1269 5.05693 9.43652 5.35721C11.7846 4.2387 14.8918 4.38438 16.622 6.94959Z" fill="#1967D2"/>
<path fill-rule="evenodd" clip-rule="evenodd" d="M9.43686 5.35741C10.1267 5.05713 10.9014 5.02644 11.632 5.22625C11.0181 5.80113 10.3751 6.46365 9.73658 7.19369C9.58421 6.5736 9.47649 5.96132 9.41565 5.36746V5.36579C9.42458 5.36244 9.42904 5.35909 9.43686 5.35741Z" fill="#A9AA00"/>
<path fill-rule="evenodd" clip-rule="evenodd" d="M15.9078 16.4685C14.7396 15.9718 13.5536 14.8214 12.5188 13.3446C11.2803 11.5803 10.2561 9.34384 9.73644 7.19389C9.58407 6.57324 9.47635 5.96152 9.41607 5.3671V5.36542C9.24416 3.68766 9.46574 2.17175 10.2332 1.1191C10.4832 0.774168 10.7919 0.478912 11.1636 0.243377V0.242261C9.77942 0.08654 8.58556 0.395749 7.79412 1.30719H7.79021C7.18965 1.99649 6.8157 3.02849 6.76379 4.46235C6.66668 5.19631 6.59412 6.24282 6.58072 7.44003C6.56956 8.60989 6.61979 9.91984 6.76491 11.2304C7.31635 16.1944 9.25365 21.1234 14.5733 18.0486C15.1755 17.6986 15.6979 17.1684 16.1305 16.5232L15.9078 16.4685Z" fill="#4285F4"/>
<path fill-rule="evenodd" clip-rule="evenodd" d="M4.10373 19.9868C3.88103 17.1409 5.06708 14.0192 6.76494 11.2307C6.61982 9.91966 6.56959 8.6097 6.58075 7.4404C3.79173 10.0279 0.441216 15.0283 0.0399132 18.7997C-0.169389 20.7654 0.423355 22.3952 2.31991 23.1744C3.11303 23.4573 4.18633 23.6404 5.4254 23.7308V23.7286C4.61833 22.581 4.20754 21.3141 4.10373 19.9868Z" fill="#A9AA00"/>
</svg>
