<svg width="24" height="19" viewBox="0 0 24 19" fill="none" xmlns="http://www.w3.org/2000/svg">
<path d="M23.8736 5.50365C23.793 5.38185 23.6923 5.2803 23.5916 5.1991C22.1004 4.1231 19.8838 2.6613 17.4657 1.52435C13.5363 -0.302879 12.8513 -0.38409 9.42565 0.73255C9.4055 0.73255 6.0403 1.8695 6 1.8695L6.96725 2.15375C10.3928 1.82889 17.5262 4.71185 21.113 7.87905C21.4556 8.1836 21.7579 8.3257 22.04 8.3257C22.0803 8.3257 22.1206 8.3257 22.1407 8.3257C22.5639 8.2648 22.8258 7.87905 23.0676 7.4933C23.2087 7.26995 23.3498 7.04665 23.5311 6.8639C24.0953 6.39695 23.8938 5.54425 23.8736 5.50365Z" fill="#F09021"/>
<path d="M23.8737 5.4834C23.8737 5.4834 21.3548 7.59485 13.355 8.28515C12.7505 8.34605 12.2064 8.7927 11.9646 9.483C11.7027 10.2138 11.8639 10.9853 12.3475 11.4523C12.7707 11.8584 13.6573 12.0208 14.685 12.0208C16.9217 12.0208 19.9443 11.2899 20.9317 10.7823C24.6797 8.8739 23.9946 5.6052 23.8737 5.4834Z" fill="#E85C26"/>
<path d="M4.85143 2.33644C0.821294 4.32609 0.398133 4.69154 0.277229 4.97579C-0.387743 6.49849 0.236928 7.87904 1.18401 8.52874C1.56687 8.79269 1.96988 8.91449 2.3326 8.91449C2.69531 8.91449 3.03787 8.77239 3.29983 8.50844C9.607 2.03194 12.811 3.22979 13.1737 3.41249C13.1938 3.41249 8.9017 0.326514 4.85143 2.33644Z" fill="#E85C26"/>
<path d="M4.48877 8.36629C1.90948 8.26479 0.57954 4.65094 0.57954 4.65094C0.378032 4.81339 0.196676 4.99609 0.116073 5.28034C-0.166036 6.13304 -0.166036 9.03629 2.89686 10.5996C3.70289 11.0056 4.20666 11.8177 4.22681 12.7313V13.3607C4.22681 15.6752 5.91945 16.3452 8.21665 16.3452V12.8126C8.1965 10.762 7.47105 8.46784 4.48877 8.36629Z" fill="#F09021"/>
<path d="M19.3398 13.3405C16.0351 15.858 6.74566 15.655 4.22681 13.3405C4.22681 13.3405 4.14621 14.1932 4.24696 15.2489C4.36787 16.6295 5.45601 17.5025 6.76581 17.8679C7.67256 18.1116 9.46596 18.3552 11.4408 18.3552C11.5617 18.3552 12.0856 18.3552 12.2065 18.3552C14.1813 18.3552 15.9948 18.1116 16.8814 17.8679C18.2114 17.5025 19.2995 16.6295 19.4003 15.2489C19.501 14.1932 19.3398 13.3405 19.3398 13.3405Z" fill="#E85C26"/>
</svg>
